<svg xmlns="http://www.w3.org/2000/svg" viewBox="0 0 512 512"><path fill="#ffffff" d="M0 256a256 256 0 1 1 512 0A256 256 0 1 1 0 256zm256 0A224 224 0 1 0 78.4 425.6c43.4-60.8 111.4-97.6 182-97.6c70.6 0 138.6 36.8 182 97.6C433.6 333.6 480 297 480 256c0-141.4-114.6-256-256-256zm-96 0c0-13.3 10.7-24 24-24s24 10.7 24 24s-10.7 24-24 24s-24-10.7-24-24zm144-24c-13.3 0-24 10.7-24 24s10.7 24 24 24s24-10.7 24-24s-10.7-24-24-24zM160 384c-17.7 0-32-14.3-32-32s14.3-32 32-32h192c17.7 0 32 14.3 32 32s-14.3 32-32 32H160z"/></svg>